#!OML:ASF H:\Punching\Project 1\Capture day 1\Session 1\female.ASF
:FULLY-SPECIFIED
:DEGREES
440
root -12.2583 15.8976 24.8684 7.80294 -19.5639 0.685351
lowerback -7.12469 1.45207 -0.266428
upperback -7.04928 1.86822 -1.33781
thorax -3.2663 0.893452 -1.15389
lowerneck -13.2794 6.23493 12.1009
upperneck 41.6882 8.61057 -6.79969
head 19.0912 4.42716 -3.76739
rclavicle 3.65764e-014 2.78299e-015
rhumerus -37.2097 -10.251 -76.5214
rradius 26.7542
rwrist 10.9462
rhand -10.1157 -6.54692
rfingers 7.12502
rthumb 15.8722 -35.9164
lclavicle 3.65764e-014 2.78299e-015
lhumerus -50.2395 12.4772 68.0394
lradius 30.6702
lwrist -22.0342
lhand -2.34947 11.727
lfingers 7.12502
lthumb 23.3382 40.3322
rfemur -10.1765 -3.36564 16.7152
rtibia 50.2353
rfoot -2.03193 7.528
rtoes -13.0822
lfemur -19.144 1.37229 -28.1732
ltibia 13.9134
lfoot -3.39239 18.2176
ltoes 14.0152
441
root -12.2517 15.9112 24.9657 7.6588 -19.7189 1.01073
lowerback -6.97699 1.41233 -0.553617
upperback -7.04122 1.82502 -1.36904
thorax -3.34863 0.882864 -1.03124
lowerneck -13.2895 6.34746 12.1865
upperneck 41.5785 8.80211 -6.90823
head 19.0724 4.50113 -3.79068
rclavicle -1.28216e-014 -9.54166e-015
rhumerus -37.3283 -10.5146 -76.1432
rradius 26.4169
rwrist 11.4089
rhand -10.0331 -6.50479
rfingers 7.12502
rthumb 15.9517 -35.8679
lclavicle -1.28216e-014 -9.54166e-015
lhumerus -49.948 12.0444 68.6037
lradius 31.1866
lwrist -21.6531
lhand -2.28679 11.7359
lfingers 7.12502
lthumb 23.3983 40.3335
rfemur -11.6041 -3.4676 16.0465
rtibia 52.5048
rfoot -0.781813 7.54794
rtoes -12.5219
lfemur -17.9982 1.60521 -28.6943
ltibia 12.4679
lfoot -2.98767 18.0339
ltoes 13.8555
442
root -12.2456 15.9207 25.0592 7.49191 -19.8325 1.33384
lowerback -6.78568 1.35938 -0.846342
upperback -7.02075 1.76329 -1.39807
thorax -3.44244 0.863591 -0.904689
lowerneck -13.2974 6.4598 12.2746
upperneck 41.4439 8.99191 -7.01972
head 19.0381 4.57413 -3.81489
rclavicle 1.47101e-014 -7.15625e-015
rhumerus -37.4244 -10.7427 -75.7831
rradius 26.1169
rwrist 11.8277
rhand -10.0415 -6.48755
rfingers 7.12502
rthumb 15.9437 -35.8513
lclavicle 1.47101e-014 -7.15625e-015
lhumerus -49.6495 11.6008 69.1531
lradius 31.7439
lwrist -21.2676
lhand -2.26958 11.7458
lfingers 7.12502
lthumb 23.4148 40.3413
rfemur -12.9936 -3.61238 15.4157
rtibia 54.6778
rfoot -0.0503249 7.17906
rtoes -12.1018
lfemur -16.8532 1.83975 -29.2054
ltibia 11.043
lfoot -2.58903 17.8157
ltoes 13.683
443
root -12.2405 15.9293 25.1497 7.30354 -19.8907 1.63022
lowerback -6.55029 1.29077 -1.12436
upperback -6.98196 1.67895 -1.41798
thorax -3.54117 0.832943 -0.77818
lowerneck -13.3155 6.57431 12.3658
upperneck 41.2899 9.1826 -7.13474
head 18.9958 4.64707 -3.83981
rclavicle -5.81445e-014 -1.0138e-014
rhumerus -37.497 -10.9547 -75.4361
rradius 25.8624
rwrist 12.2399
rhand -10.1077 -6.51803
rfingers 7.12502
rthumb 15.8799 -35.8869
lclavicle -5.81445e-014 -1.0138e-014
lhumerus -49.337 11.1604 69.6776
lradius 32.3295
lwrist -20.8882
lhand -2.31698 11.7473
lfingers 7.12502
lthumb 23.3693 40.3486
rfemur -14.3001 -3.80102 14.8559
rtibia 56.7055
rfoot 0.141753 6.38589
rtoes -11.7311
lfemur -15.7385 2.05882 -29.6747
ltibia 9.72898
lfoot -2.24424 17.5756
ltoes 13.4986
444
root -12.2369 15.9312 25.2365 7.10571 -19.8779 1.88455
lowerback -6.28273 1.20174 -1.37534
upperback -6.93115 1.56519 -1.42298
thorax -3.64442 0.787084 -0.652318
lowerneck -13.3199 6.69046 12.4682
upperneck 41.1201 9.37871 -7.26443
head 18.944 4.72225 -3.87214
rclavicle 2.29596e-014 -1.19271e-015
rhumerus -37.558 -11.1375 -75.1079
rradius 25.6536
rwrist 12.6093
rhand -10.2401 -6.5747
rfingers 7.12502
rthumb 15.7525 -35.9537
lclavicle 2.29596e-014 -1.19271e-015
lhumerus -49.0244 10.7311 70.1691
lradius 32.936
lwrist -20.5243
lhand -2.43925 11.7376
lfingers 7.12502
lthumb 23.252 40.3537
rfemur -15.5234 -4.02773 14.3871
rtibia 58.5763
rfoot -0.142349 5.20311
rtoes -11.2768
lfemur -14.7195 2.22719 -30.0824
ltibia 8.63004
lfoot -1.99674 17.3402
ltoes 13.3201
445
root -12.2348 15.9308 25.321 6.91568 -19.7827 2.0699
lowerback -6.00313 1.09348 -1.57066
upperback -6.86755 1.42346 -1.40685
thorax -3.7392 0.725587 -0.535706
lowerneck -13.3116 6.80451 12.5723
upperneck 40.939 9.57533 -7.40363
head 18.8836 4.79698 -3.90886
rclavicle 1.38155e-014 -8.34896e-015
rhumerus -37.6125 -11.2992 -74.7919
rradius 25.4973
rwrist 12.9299
rhand -10.4231 -6.64121
rfingers 7.12502
rthumb 15.5761 -36.034
lclavicle 1.38155e-014 -8.34896e-015
lhumerus -48.6991 10.3164 70.631
lradius 33.5436
lwrist -20.1748
lhand -2.63661 11.7306
lfingers 7.12502
lthumb 23.0627 40.3705
rfemur -16.6467 -4.2818 14.0358
rtibia 60.2417
rfoot -0.746638 3.71929
rtoes -10.4995
lfemur -13.831 2.33113 -30.4019
ltibia 7.81666
lfoot -1.90132 17.1248
ltoes 13.2253
446
root -12.2342 15.9287 25.4038 6.74971 -19.6182 2.18516
lowerback -5.72953 0.971953 -1.70294
upperback -6.79847 1.26205 -1.37323
thorax -3.82281 0.652067 -0.435491
lowerneck -13.2881 6.91313 12.6821
upperneck 40.7535 9.76686 -7.55309
head 18.8182 4.86975 -3.95263
rclavicle 2.14439e-014 1.47101e-014
rhumerus -37.6558 -11.5051 -74.4612
rradius 25.356
rwrist 13.2383
rhand -10.6635 -6.64129
rfingers 7.12502
rthumb 15.3447 -36.0519
lclavicle 2.14439e-014 1.47101e-014
lhumerus -48.3594 9.92389 71.0546
lradius 34.1382
lwrist -19.8482
lhand -2.89996 11.7289
lfingers 7.12502
lthumb 22.81 40.4002
rfemur -17.7025 -4.53787 13.7974
rtibia 61.6893
rfoot -1.53173 2.09617
rtoes -9.40111
lfemur -13.1373 2.37935 -30.6386
ltibia 7.38884
lfoot -2.01959 16.9371
ltoes 13.2589
447
root -12.2347 15.926 25.4852 6.6306 -19.3813 2.22112
lowerback -5.49174 0.838721 -1.7619
upperback -6.72984 1.08408 -1.31814
thorax -3.88482 0.567613 -0.352688
lowerneck -13.244 7.01369 12.7862
upperneck 40.5712 9.95171 -7.70674
head 18.7489 4.93922 -3.99927
rclavicle -3.78933e-014 -3.12092e-014
rhumerus -37.7079 -11.7161 -74.1251
rradius 25.257
rwrist 13.4736
rhand -10.9558 -6.57866
rfingers 7.12502
rthumb 15.063 -36.0107
lclavicle -3.78933e-014 -3.12092e-014
lhumerus -48.0019 9.54537 71.4518
lradius 34.7116
lwrist -19.5278
lhand -3.21312 11.7354
lfingers 7.12502
lthumb 22.5094 40.4434
rfemur -18.7146 -4.783 13.6771
rtibia 62.8976
rfoot -2.3529 0.469625
rtoes -8.18126
lfemur -12.6064 2.3653 -30.7845
ltibia 7.23969
lfoot -2.29192 16.7692
ltoes 13.4041
448
root -12.2361 15.9234 25.5665 6.55516 -19.0915 2.20932
lowerback -5.31095 0.699357 -1.76966
upperback -6.65419 0.898474 -1.25278
thorax -3.9061 0.477204 -0.286095
lowerneck -13.2109 7.10613 12.876
upperneck 40.3985 10.1241 -7.85345
head 18.6856 5.00243 -4.04262
rclavicle -1.59028e-014 2.78299e-015
rhumerus -37.7626 -11.8915 -73.8108
rradius 25.2198
rwrist 13.5727
rhand -11.2856 -6.46578
rfingers 7.12502
rthumb 14.7454 -35.9213
lclavicle -1.59028e-014 2.78299e-015
lhumerus -47.5998 9.19147 71.8229
lradius 35.2489
lwrist -19.217
lhand -3.5551 11.7493
lfingers 7.12502
lthumb 22.1811 40.4967
rfemur -19.7109 -5.00575 13.63
rtibia 63.8666
rfoot -3.1188 -1.04539
rtoes -7.02558
lfemur -12.2047 2.30104 -30.8769
ltibia 7.29651
lfoot -2.68118 16.6162
ltoes 13.6457
449
root -12.238 15.9211 25.6479 6.52885 -18.7649 2.16359
lowerback -5.19673 0.557661 -1.73999
upperback -6.58456 0.71066 -1.17788
thorax -3.89557 0.384117 -0.229207
lowerneck -13.1687 7.18634 12.9469
upperneck 40.2422 10.2813 -7.99071
head 18.6255 5.05843 -4.08209
rclavicle -4.93731e-014 7.7526e-015
rhumerus -37.8408 -12.027 -73.507
rradius 25.2409
rwrist 13.5307
rhand -11.6212 -6.32336
rfingers 7.12502
rthumb 14.422 -35.8023
lclavicle -4.93731e-014 7.7526e-015
lhumerus -47.176 8.85489 72.1731
lradius 35.7557
lwrist -18.902
lhand -3.90838 11.7754
lfingers 7.12502
lthumb 21.8419 40.5627
rfemur -20.7094 -5.18693 13.6352
rtibia 64.6017
rfoot -3.82195 -2.346
rtoes -6.1474
lfemur -11.9172 2.19821 -30.9315
ltibia 7.50062
lfoot -3.13312 16.4651
ltoes 13.8523
450
root -12.2402 15.9189 25.7286 6.55059 -18.4176 2.10483
lowerback -5.14992 0.418436 -1.69671
upperback -6.52399 0.527369 -1.09765
thorax -3.85651 0.292647 -0.173493
lowerneck -13.1164 7.25372 12.9919
upperneck 40.103 10.4216 -8.11122
head 18.5669 5.10649 -4.11332
rclavicle -3.28243e-014 2.5842e-015
rhumerus -37.9396 -12.1046 -73.2212
rradius 25.3161
rwrist 13.3329
rhand -11.9421 -6.2314
rfingers 7.12502
rthumb 14.1128 -35.7321
lclavicle -3.28243e-014 2.5842e-015
lhumerus -46.7361 8.53716 72.5056
lradius 36.2482
lwrist -18.5927
lhand -4.23984 11.8202
lfingers 7.12502
lthumb 21.5236 40.6443
rfemur -21.7077 -5.30194 13.6629
rtibia 65.1199
rfoot -4.47687 -3.38063
rtoes -5.55274
lfemur -11.7301 2.06912 -30.9694
ltibia 7.80263
lfoot -3.60825 16.3113
ltoes 13.9927
451
root -12.2428 15.9161 25.8099 6.60479 -18.0542 2.04806
lowerback -5.16512 0.282904 -1.65025
upperback -6.47397 0.350058 -1.0165
thorax -3.79368 0.203874 -0.118206
lowerneck -13.0471 7.30641 13.0156
upperneck 39.9829 10.5423 -8.21645
head 18.5088 5.1463 -4.13878
rclavicle -1.09829e-014 -2.46493e-014
rhumerus -38.0706 -12.1205 -72.9475
rradius 25.438
rwrist 12.9903
rhand -12.2156 -6.20396
rfingers 7.12502
rthumb 13.8492 -35.7229
lclavicle -1.09829e-014 -2.46493e-014
lhumerus -46.281 8.23583 72.8229
lradius 36.707
lwrist -18.288
lhand -4.55971 11.8679
lfingers 7.12502
lthumb 21.2164 40.7268
rfemur -22.6776 -5.3548 13.685
rtibia 65.4327
rfoot -5.14509 -4.11417
rtoes -5.19527
lfemur -11.6221 1.91858 -31.0047
ltibia 8.19764
lfoot -4.1091 16.1529
ltoes 14.0367
452
root -12.2459 15.9126 25.8911 6.68443 -17.6868 2.00019
lowerback -5.22575 0.151361 -1.61482
upperback -6.43365 0.178968 -0.934696
thorax -3.7156 0.118556 -0.0561425
lowerneck -12.9677 7.35079 13.0298
upperneck 39.8876 10.6523 -8.31268
head 18.4598 5.18223 -4.16193
rclavicle -2.32951e-014 2.98177e-016
rhumerus -38.2135 -12.1287 -72.658
rradius 25.5659
rwrist 12.5635
rhand -12.4 -6.12732
rfingers 7.12502
rthumb 13.6715 -35.6583
lclavicle -2.32951e-014 2.98177e-016
lhumerus -45.8159 7.95928 73.1223
lradius 37.1429
lwrist -17.9954
lhand -4.86357 11.9099
lfingers 7.12502
lthumb 20.9245 40.8013
rfemur -23.6212 -5.32379 13.6895
rtibia 65.5563
rfoot -5.85613 -4.55281
rtoes -5.08746
lfemur -11.5888 1.75898 -31.0429
ltibia 8.67822
lfoot -4.63299 15.9888
ltoes 13.9966
453
root -12.2497 15.9081 25.9722 6.77488 -17.3088 1.96195
lowerback -5.31253 0.0253626 -1.5913
upperback -6.4042 0.0156872 -0.854113
thorax -3.63423 0.0375459 0.0109767
lowerneck -12.8745 7.38359 13.0296
upperneck 39.8236 10.7455 -8.39158
head 18.4203 5.21238 -4.17955
rclavicle 2.6165e-014 8.94531e-016
rhumerus -38.3853 -12.0864 -72.3753
rradius 25.7251
rwrist 12.0329
rhand -12.4929 -6.10455
rfingers 7.12502
rthumb 13.5819 -35.6415
lclavicle 2.6165e-014 8.94531e-016
lhumerus -45.3452 7.69378 73.4102
lradius 37.5577
lwrist -17.7198
lhand -5.13799 11.9511
lfingers 7.12502
lthumb 20.6608 40.8714
rfemur -24.5213 -5.22211 13.6735
rtibia 65.5024
rfoot -6.61661 -4.72708
rtoes -5.17373
lfemur -11.6259 1.5865 -31.0827
ltibia 9.27325
lfoot -5.2062 15.8214
ltoes 13.9378
454
root -12.2544 15.9022 26.0534 6.86371 -16.9275 1.9394
lowerback -5.41 -0.0941687 -1.58353
upperback -6.38297 -0.138823 -0.779677
thorax -3.55541 -0.0386083 0.0801784
lowerneck -12.7732 7.40774 13.0315
upperneck 39.7891 10.8243 -8.46186
head 18.3935 5.23888 -4.19815
rclavicle 8.68441e-015 -8.34896e-015
rhumerus -38.5666 -12.0974 -72.0496
rradius 25.8465
rwrist 11.5247
rhand -12.4885 -5.94151
rfingers 7.12502
rthumb 13.5862 -35.4782
lclavicle 8.68441e-015 -8.34896e-015
lhumerus -44.8709 7.44801 73.6776
lradius 37.951
lwrist -17.4724
lhand -5.37765 11.9863
lfingers 7.12502
lthumb 20.4305 40.9315
rfemur -25.3701 -5.05199 13.6277
rtibia 65.281
rfoot -7.42239 -4.68302
rtoes -5.42489
lfemur -11.7036 1.4091 -31.1319
ltibia 9.95152
lfoot -5.82542 15.6549
ltoes 13.8983
